<svg width="120" height="120" viewBox="0 0 120 120" fill="none" xmlns="http://www.w3.org/2000/svg">
<path d="M75.0183 50.5748C72.9746 51.0989 71.2871 51.3796 69.5621 51.9972C68.1934 52.3528 66.8059 52.7272 65.2121 53.1389L65.0997 53.1576C64.3122 53.3822 64.2372 53.401 63.5059 52.5587C62.6247 51.5668 61.9872 50.9304 60.7684 50.3315C57.0747 48.5347 53.5122 49.0588 50.1935 51.2112C46.2185 53.7753 44.1748 57.5747 44.231 62.2911C44.2873 66.9702 47.4935 70.807 51.956 71.4433C56.081 71.9674 59.4184 70.5824 62.0434 67.6065C62.4372 67.1199 62.7934 66.6146 63.1872 66.0531C63.3372 65.8659 63.4684 65.66 63.6184 65.4354H52.3497C51.131 65.4354 50.831 64.6868 51.2435 63.6948C51.9935 61.8794 53.3997 58.8474 54.2247 57.3313C54.3935 56.9945 54.806 56.2458 55.5185 56.2458H74.4746C75.3183 53.7378 76.6871 51.2112 78.5246 48.8155C82.7808 43.2194 87.7683 40.2996 94.8745 39.0831C100.837 38.035 106.443 38.6152 111.543 42.059C116.156 45.2033 119.006 49.4706 119.774 55.0667C120.768 62.9462 118.481 69.3471 112.893 74.831C109.199 78.7426 104.474 81.1945 99.037 82.2987C97.987 82.4859 96.9557 82.5795 95.9432 82.673C95.3995 82.7105 94.8745 82.7666 94.3495 82.8228C89.0433 82.7105 84.187 81.1945 80.0996 77.6945C77.2308 75.2053 75.2433 72.1546 74.2683 68.6172C73.5746 69.9835 72.7684 71.3123 71.6434 72.5663C67.5934 78.1063 62.0997 81.5501 55.1622 82.4672C49.4247 83.2345 44.1185 82.1303 39.431 78.6304C35.1186 75.355 32.6623 71.0503 32.0248 65.6788C31.2561 59.3153 33.1311 53.4384 36.9748 48.5909C41.1373 43.1632 46.631 39.7194 53.3435 38.5029C58.8372 37.3425 64.0872 38.1473 68.8309 41.3665C71.9246 43.4065 74.1371 46.1952 75.5996 49.5829C75.9558 50.1069 75.7121 50.4064 75.0183 50.5748ZM9.05621 51.6229C8.82184 51.6229 8.76371 51.5106 8.87996 51.3235L10.1081 49.7513C10.2243 49.5829 10.5168 49.4706 10.7512 49.4706H31.6123C31.8373 49.4706 31.8936 49.639 31.7811 49.8074L30.7873 51.3235C30.6748 51.5106 30.3748 51.6791 30.2061 51.6791L9.05621 51.6229ZM0.233638 56.9945C1.39027e-05 56.9945 -0.0584858 56.8634 0.0585136 56.695L1.28532 55.1228C1.40232 54.9544 1.69444 54.8234 1.9275 54.8234H28.5749C28.7999 54.8234 28.9124 55.0105 28.8561 55.179L28.3874 56.5827C28.3311 56.8073 28.1061 56.9383 27.8624 56.9383L0.233638 56.9945ZM14.1974 62.0104C14.0812 62.1788 14.1393 62.3473 14.3718 62.3473L27.1124 62.4034C27.2811 62.4034 27.5249 62.235 27.5249 62.0104L27.6374 60.6067C27.6374 60.3634 27.5249 60.1949 27.2811 60.1949H15.5999C15.3656 60.1949 15.1331 60.3634 15.0149 60.5505L14.1974 62.0104ZM108.224 58.6415C108.187 58.1549 108.168 57.7431 108.093 57.3313C107.043 51.5668 101.718 48.2914 96.1682 49.5829C90.7308 50.7994 87.2245 54.2432 85.9495 59.727C84.8995 64.275 87.112 68.8792 91.312 70.7508C94.537 72.1546 97.7432 71.9861 100.837 70.3952C105.449 67.8498 107.962 64.275 108.262 59.2591C108.243 59.0345 108.243 58.8286 108.224 58.6415Z" fill="white"/>
</svg>
