<svg width="120" height="120" viewBox="0 0 120 120" fill="none" xmlns="http://www.w3.org/2000/svg">
<g clip-path="url(#clip0_6_229)">
<path fill-rule="evenodd" clip-rule="evenodd" d="M18 0H102C111.941 0 120 8.05888 120 18V102C120 111.941 111.941 120 102 120H18C8.05888 120 0 111.941 0 102V18C0 8.05888 8.05888 0 18 0ZM86.9531 93.5156C81.5625 93.5156 78.2812 90.7031 75.9375 86.7188L66.5625 92.1094C69.8438 98.6719 76.6406 103.594 87.1875 103.594C97.9688 103.594 105.938 97.9688 105.938 87.8906C105.938 78.2812 100.547 74.2969 90.9375 70.0781L88.125 68.9062C83.2031 66.7969 81.0938 65.3906 81.0938 62.1094C81.0938 59.2969 83.2031 57.1875 86.4844 57.1875C89.7656 57.1875 91.875 58.5938 93.75 62.1094L102.422 56.4844C98.9062 49.9219 93.75 47.3438 86.4844 47.3438C76.4062 47.3438 70.0781 53.9062 70.0781 62.3438C70.0781 71.4844 75.4688 75.7031 83.6719 79.2188L86.4844 80.3906C91.6406 82.7344 94.6875 84.1406 94.6875 87.8906C94.6875 91.1719 91.6406 93.5156 86.9531 93.5156ZM36.4856 88.2982C36.3566 88.086 36.2263 87.8717 36.0938 87.6562L26.9531 92.5781C29.5312 98.2031 34.6875 102.891 43.8281 102.891C53.9062 102.891 60.7031 97.7344 60.7031 86.0156V47.5781H49.4531V86.4844C49.4531 92.1094 47.1094 93.5156 43.3594 93.5156C39.6568 93.5156 38.1805 91.0869 36.4856 88.2982Z" fill="white"/>
</g>
<defs>
<clipPath id="clip0_6_229">
<rect width="120" height="120" fill="white"/>
</clipPath>
</defs>
</svg>
