<svg width="120" height="120" viewBox="0 0 120 120" fill="none" xmlns="http://www.w3.org/2000/svg">
<path d="M118.116 27.0998C118.159 27.2595 118.182 27.4242 118.182 27.5896V53.3024C118.182 53.9741 117.822 54.5946 117.24 54.9288L95.6585 67.3539V91.9817C95.6585 92.6519 95.3023 93.2706 94.7211 93.6081L49.6722 119.541C49.5691 119.6 49.4566 119.637 49.3441 119.677C49.3019 119.691 49.2621 119.717 49.2175 119.729C48.9026 119.812 48.5716 119.812 48.2567 119.729C48.2052 119.715 48.1583 119.686 48.1091 119.668C48.006 119.63 47.8982 119.597 47.7997 119.541L2.7602 93.6081C2.17783 93.2735 1.81812 92.6533 1.81812 91.9817V14.8434C1.81812 14.6746 1.84155 14.5106 1.88373 14.3512C1.89779 14.2973 1.9306 14.2481 1.94935 14.1942C1.9845 14.0958 2.01731 13.995 2.06887 13.9036C2.10402 13.8427 2.15558 13.7935 2.19776 13.7372C2.25166 13.6622 2.30087 13.5849 2.36415 13.5193C2.41805 13.4654 2.48835 13.4256 2.54928 13.3787C2.61725 13.3224 2.67818 13.2615 2.75551 13.217H2.75785L25.2788 0.250452C25.8591 -0.0834839 26.5733 -0.0834839 27.1536 0.250452L49.6745 13.217H49.6792C49.7542 13.2638 49.8175 13.3224 49.8854 13.3763C49.9464 13.4232 50.0143 13.4654 50.0682 13.5169C50.1338 13.5849 50.1807 13.6622 50.237 13.7372C50.2768 13.7935 50.3307 13.8427 50.3635 13.9036C50.4174 13.9974 50.4479 14.0958 50.4854 14.1942C50.5041 14.2481 50.5369 14.2973 50.551 14.3536C50.5941 14.5133 50.6162 14.6779 50.6166 14.8434V63.0232L69.3833 52.2173V27.5873C69.3833 27.4232 69.4067 27.2568 69.4489 27.0998C69.4653 27.0436 69.4958 26.9944 69.5145 26.9405C69.552 26.842 69.5848 26.7413 69.6364 26.6499C69.6715 26.5889 69.7231 26.5397 69.7629 26.4835C69.8192 26.4085 69.866 26.3311 69.9316 26.2655C69.9855 26.2116 70.0535 26.1718 70.1144 26.1249C70.1847 26.0687 70.2457 26.0077 70.3207 25.9632H70.323L92.8463 12.9967C93.4265 12.6623 94.1409 12.6623 94.7211 12.9967L117.242 25.9632C117.322 26.0101 117.383 26.0687 117.453 26.1226C117.512 26.1694 117.579 26.2116 117.633 26.2632C117.699 26.3311 117.746 26.4085 117.802 26.4835C117.844 26.5397 117.896 26.5889 117.929 26.6499C117.983 26.7413 118.013 26.842 118.051 26.9405C118.072 26.9944 118.102 27.0436 118.116 27.0998ZM114.427 52.2173V30.8353L106.546 35.3723L95.6585 41.6412V63.0232L114.43 52.2173H114.427ZM91.9065 90.8966V69.5006L81.1968 75.6171L50.6143 93.0714V114.669L91.9065 90.8966ZM5.57239 18.0891V90.8966L46.86 114.667V93.0737L25.2905 80.8665L25.2835 80.8618L25.2741 80.8571C25.2015 80.8149 25.1405 80.754 25.0726 80.7025C25.014 80.6556 24.946 80.6181 24.8945 80.5665L24.8898 80.5595C24.8288 80.5009 24.7867 80.4283 24.7351 80.3626C24.6882 80.2994 24.632 80.2455 24.5945 80.1799L24.5921 80.1728C24.55 80.1025 24.5242 80.0182 24.4937 79.9385C24.4633 79.8682 24.4234 79.8026 24.4047 79.7276V79.7252C24.3812 79.6362 24.3765 79.5424 24.3672 79.451C24.3578 79.3807 24.3391 79.3104 24.3391 79.2401V79.2354V28.8949L13.4535 22.6237L5.57239 18.0914V18.0891ZM26.2185 4.04222L7.45421 14.8434L26.2138 25.6445L44.9758 14.841L26.2138 4.04222H26.2185ZM35.9768 71.4504L46.8623 65.1839V18.0891L38.9812 22.6261L28.0933 28.8949V75.9897L35.9768 71.4504ZM93.7837 16.7885L75.0217 27.5896L93.7837 38.3907L112.543 27.5873L93.7837 16.7885ZM91.9065 41.6412L81.0187 35.3723L73.1375 30.8353V52.2173L84.023 58.4838L91.9065 63.0232V41.6412ZM48.7348 89.8257L76.2544 74.1149L90.0107 66.2642L71.2627 55.4701L49.6769 67.8976L30.0033 79.2237L48.7348 89.8257Z" fill="white"/>
</svg>
