<svg width="120" height="120" viewBox="0 0 120 120" fill="none" xmlns="http://www.w3.org/2000/svg">
<g clip-path="url(#clip0_2_6845)">
<path d="M85.9178 47.775C79.5978 19.875 64.6578 10.705 63.0528 7.2C61.6528 5.23 60.4028 2.43 59.3778 0C59.1978 2.475 59.1028 3.425 56.7628 5.92C53.1478 8.75 34.5728 24.33 33.0628 56.02C31.6528 85.58 54.4128 103.195 57.5028 105.44L57.8528 105.69C58.4956 110.449 59.0457 115.22 59.5028 120H61.9078C62.4825 114.841 63.3337 109.717 64.4578 104.65C66.5428 103.17 67.4778 102.335 68.7078 101.185C74.5331 95.7969 79.1626 89.246 82.2968 81.9561C85.431 74.6661 87.0002 66.7995 86.9028 58.865C86.9528 54.795 86.3878 50.555 85.9178 47.775ZM59.2378 88.75C59.2378 88.75 59.2378 47.295 60.6128 47.3C61.6778 47.3 63.0628 100.775 63.0628 100.775C61.1578 100.55 59.2378 91.975 59.2378 88.75Z" fill="white"/>
</g>
<defs>
<clipPath id="clip0_2_6845">
<rect width="120" height="120" fill="white"/>
</clipPath>
</defs>
</svg>
