<svg width="120" height="120" viewBox="0 0 120 120" fill="none" xmlns="http://www.w3.org/2000/svg">
<path fill-rule="evenodd" clip-rule="evenodd" d="M27.3096 20.2004C25.9446 20.1751 24.9788 20.3484 23.9585 20.5723V20.7576H24.1451C24.7972 22.0955 25.9472 22.957 26.7517 24.1094C27.3704 25.4131 27.9909 26.7149 28.6114 28.0166C28.6747 27.9546 28.7373 27.8933 28.798 27.8313C29.9524 27.0197 30.4786 25.7205 30.4736 23.7369C30.0106 23.2498 29.9416 22.6413 29.5419 22.0613C29.0118 21.2877 27.9808 20.8506 27.3096 20.2004ZM117.393 115.685C118.272 116.329 118.861 117.329 120 117.733V117.547C119.4 116.787 119.248 115.737 118.698 114.94C117.893 114.136 117.082 113.328 116.278 112.52C113.911 109.38 110.909 106.623 107.716 104.332C105.173 102.503 99.4724 100.036 98.4097 97.0742C98.349 97.011 98.2857 96.9483 98.2225 96.8851C100.027 96.6827 102.142 96.0299 103.807 95.5827C106.605 94.8325 109.107 95.0273 111.995 94.2803C113.3 93.9065 114.602 93.5333 115.904 93.1645V92.4175C114.444 90.9184 113.403 88.9348 111.811 87.578C107.642 84.0307 103.094 80.4835 98.4091 77.5283C95.8131 75.8875 92.6005 74.8229 89.8471 73.4326C88.9211 72.9658 87.2954 72.7223 86.6825 71.9436C85.2384 70.0991 84.4497 67.7619 83.3339 65.6145C80.9986 61.1153 78.7018 56.2017 76.6315 51.4678C75.2216 48.2406 74.2987 45.0577 72.5384 42.1614C64.0871 28.2665 54.9881 19.8791 40.8971 11.6352C37.8964 9.88248 34.2871 9.19049 30.4736 8.28596C28.4273 8.16262 26.3773 8.03674 24.331 7.9134C23.0818 7.39156 21.7826 5.86335 20.6092 5.12139C15.9398 2.17252 3.96406 -4.24328 0.507887 4.19157C-1.67562 9.51434 3.76924 14.7087 5.71807 17.4071C7.08625 19.299 8.83521 21.4212 9.81437 23.5484C10.4564 24.9469 10.5658 26.3505 11.1193 27.83C12.4716 31.4759 13.6469 35.4419 15.3965 38.8121C16.2827 40.5161 17.2587 42.3132 18.377 43.8369C19.0633 44.7725 20.236 45.1842 20.4201 46.6289C19.2733 48.2375 19.2075 50.7335 18.563 52.7709C15.6533 61.9439 16.7507 73.3434 20.983 80.133C22.2797 82.216 25.3387 86.6874 29.5419 84.9713C33.2188 83.4734 32.399 78.8307 33.4509 74.735C33.6875 73.8045 33.5433 73.122 34.0088 72.5015V72.6868C35.1271 74.9203 36.2442 77.1538 37.36 79.3867C39.8408 83.3798 44.2413 87.5558 47.9708 90.37C49.9019 91.8299 51.4244 94.3549 53.9261 95.2095V95.0204H53.7395C53.2524 94.2683 52.4946 93.9527 51.8798 93.3473C50.4225 91.9184 48.8025 90.1435 47.5969 88.5072C44.204 83.9029 41.2077 78.8629 38.4777 73.6179C37.1728 71.1125 36.0393 68.3489 34.9393 65.8004C34.5161 64.8168 34.5212 63.331 33.6369 62.8218C32.4325 64.6891 30.6595 66.2008 29.7278 68.4058C28.2388 71.9316 28.0472 76.2309 27.495 80.6897C27.1686 80.8073 27.3134 80.727 27.1211 80.875C24.5278 80.2513 23.6175 77.582 22.6548 75.2923C20.2189 69.5033 19.7667 60.1804 21.9103 53.5154C22.4651 51.7917 24.975 46.3601 23.9566 44.7674C23.4721 43.1772 21.8755 42.2594 20.9818 41.0443C19.871 39.5427 18.7666 37.5673 17.9987 35.8322C16.0075 31.3184 15.0764 26.2512 12.977 21.6875C11.9726 19.5071 10.2755 17.2983 8.88138 15.3583C7.338 13.2102 5.60928 11.6289 4.41442 9.02919C3.98872 8.10632 3.40996 6.62935 4.04122 5.67992C4.24047 5.03916 4.52511 4.77223 5.15955 4.56286C6.24055 3.73045 9.24445 4.83991 10.3697 5.30736C13.3528 6.54649 15.8462 7.72743 18.3745 9.40175C19.587 10.2063 20.8148 11.7636 22.2804 12.1944H23.9559C26.5784 12.7959 29.514 12.3823 31.96 13.1255C36.2872 14.4405 40.1646 16.4861 43.686 18.7101C54.4131 25.4827 63.1851 35.1263 69.1853 46.6289C70.1506 48.481 70.5693 50.2483 71.4182 52.2136C73.133 56.1752 75.2956 60.2506 77.0022 64.1255C78.7043 67.989 80.3641 71.8898 82.7709 75.1069C84.036 76.7971 88.9255 77.7041 91.1488 78.6441C92.7061 79.3013 95.2571 79.9882 96.7303 80.875C99.5502 82.5759 102.278 84.5987 104.921 86.4609C106.242 87.3926 110.303 89.4332 110.503 91.1119C103.958 90.9386 98.9581 91.5465 94.6834 93.3479C93.4683 93.8584 91.5321 93.8736 91.3323 95.3936C92.0002 96.0932 92.1059 97.1406 92.6372 98.0002C93.6549 99.6524 95.378 101.864 96.9169 103.027C98.5976 104.295 100.329 105.652 102.128 106.749C105.332 108.704 108.909 109.819 111.992 111.776C113.816 112.931 115.621 114.382 117.393 115.685Z" fill="white"/>
</svg>
