<svg width="120" height="120" viewBox="0 0 120 120" fill="none" xmlns="http://www.w3.org/2000/svg">
<g clip-path="url(#clip0_2_6850)">
<path d="M56.07 0.0306197C55.81 0.0556154 54.99 0.140601 54.25 0.195591C37.21 1.73533 21.25 10.9287 11.13 25.0613C5.54498 32.8205 1.91243 41.8112 0.54 51.2718C0.06 54.5712 0 55.5411 0 60.0103C0 64.4795 0.06 65.4544 0.54 68.7488C3.8 91.2799 19.84 110.207 41.585 117.22C45.48 118.475 49.585 119.33 54.25 119.85C56.07 120.05 63.93 120.05 65.75 119.85C73.805 118.955 80.635 116.961 87.365 113.526C88.4 113.001 88.6 112.856 88.46 112.741C85.168 108.401 81.9096 104.034 78.685 99.6435L69.09 86.6807L57.07 68.8888C53.0705 62.9379 49.0338 57.0121 44.96 51.1118C44.915 51.0968 44.87 59.0005 44.845 68.6588C44.81 85.5559 44.795 86.2358 44.585 86.6357C44.3787 87.1015 44.0137 87.4788 43.555 87.7006C43.18 87.8905 42.855 87.9255 41.08 87.9255H39.05L38.51 87.5856C38.1758 87.3747 37.9047 87.0776 37.725 86.7257L37.475 86.2008L37.5 62.6848L37.535 39.1589L37.9 38.699C38.1423 38.4079 38.4375 38.1653 38.77 37.9841C39.25 37.7491 39.435 37.7291 41.47 37.7291C43.86 37.7291 44.26 37.8191 44.88 38.499C45.055 38.689 51.565 48.4973 59.355 60.3053L83.025 96.1591L92.525 110.547L93.01 110.232C97.5827 107.194 101.728 103.557 105.335 99.4185C112.895 90.766 117.799 80.1174 119.46 68.7488C119.94 65.4494 120 64.4795 120 60.0103C120 55.5411 119.94 54.5712 119.46 51.2718C116.2 28.7457 100.16 9.81394 78.415 2.80014C74.3509 1.50821 70.1661 0.632203 65.925 0.185593C64.795 0.0656137 57.045 -0.0643639 56.075 0.0356189M80.64 36.3294C80.9193 36.4691 81.168 36.6631 81.3714 36.9C81.5749 37.1369 81.7291 37.412 81.825 37.7091C81.915 38.0091 81.94 44.533 81.915 59.2304L81.88 80.3168L78.165 74.6178L74.435 68.9188V53.5914C74.435 43.6781 74.48 38.1091 74.55 37.8391C74.6338 37.5271 74.7797 37.2352 74.979 36.9809C75.1783 36.7267 75.427 36.5152 75.71 36.3594C76.195 36.1094 76.37 36.0894 78.21 36.0894C79.945 36.0894 80.25 36.1144 80.64 36.3244" fill="white"/>
</g>
<defs>
<clipPath id="clip0_2_6850">
<rect width="120" height="120" fill="white"/>
</clipPath>
</defs>
</svg>
