<svg width="120" height="120" viewBox="0 0 120 120" fill="none" xmlns="http://www.w3.org/2000/svg">
<path d="M55.1081 1.52346C58.0706 -0.172283 61.9294 -0.179942 64.8894 1.52346C79.7809 9.93793 94.677 18.3392 109.566 26.7588C112.366 28.3362 114.24 31.4528 114.211 34.6796V85.3043C114.232 88.6647 112.174 91.8558 109.219 93.3975C94.3766 101.766 79.5417 110.144 64.7017 118.512C61.6779 120.241 57.7417 120.108 54.8123 118.237C50.3626 115.658 45.9051 113.091 41.4549 110.514C40.5455 109.972 39.5204 109.54 38.8783 108.658C39.446 107.893 40.4609 107.798 41.2855 107.464C43.143 106.873 44.8489 105.925 46.5553 105.005C46.9868 104.71 47.5136 104.823 47.9272 105.087C51.7323 107.269 55.5038 109.514 59.3217 111.675C60.1362 112.145 60.9609 111.521 61.657 111.133C76.2221 102.901 90.8051 94.7001 105.368 86.4656C105.907 86.206 106.206 85.6332 106.162 85.0422C106.172 68.3422 106.164 51.6392 106.167 34.9392C106.229 34.2686 105.84 33.652 105.234 33.3775C90.443 25.0477 75.6596 16.7052 60.8711 8.37325C60.6149 8.1971 60.3113 8.10259 60.0004 8.10213C59.6895 8.10168 59.3857 8.1953 59.1289 8.3707C44.3404 16.7052 29.5596 25.0554 14.7711 33.3847C14.1668 33.6596 13.7613 34.266 13.8332 34.9392C13.8357 51.6392 13.8332 68.3422 13.8332 85.0447C13.8076 85.3331 13.8709 85.6225 14.0147 85.8738C14.1585 86.1251 14.3758 86.3263 14.6375 86.4503C18.5838 88.6881 22.5353 90.9103 26.4843 93.1405C28.7089 94.3379 31.4404 95.0494 33.8915 94.132C36.0545 93.3562 37.5706 91.149 37.5294 88.8524C37.5498 72.2498 37.5192 55.6447 37.5447 39.0447C37.4906 38.3077 38.1898 37.6988 38.9064 37.7681C40.8026 37.7554 42.7013 37.7426 44.5975 37.7733C45.3889 37.7554 45.9336 38.549 45.8358 39.2915C45.8281 55.9992 45.8562 72.7073 45.823 89.4149C45.8281 93.8677 43.9987 98.7128 39.88 100.892C34.806 103.52 28.5345 102.963 23.5217 100.442C19.1821 98.2762 15.0409 95.7201 10.7783 93.3996C7.81617 91.8664 5.76809 88.6626 5.78894 85.3047V34.6796C5.75788 31.386 7.70554 28.2128 10.5932 26.6584C25.4332 18.2835 40.2706 9.90219 55.1081 1.52346Z" fill="white"/>
<path d="M68.0544 36.5915C74.5268 36.1749 81.4557 36.3447 87.28 39.5332C91.7893 41.9766 94.2893 47.1047 94.3689 52.1145C94.243 52.7903 93.5366 53.163 92.8915 53.1166C91.0136 53.1141 89.1353 53.1422 87.2574 53.1039C86.4608 53.1345 85.9979 52.4 85.8979 51.6958C85.3583 49.2988 84.051 46.9247 81.7949 45.7685C78.3315 44.0345 74.3157 44.1217 70.5391 44.1579C67.7821 44.3043 64.8174 44.543 62.4817 46.1643C60.6885 47.3924 60.1438 49.8715 60.7838 51.8681C61.3872 53.3017 63.0421 53.7643 64.3961 54.1907C72.1961 56.2307 80.4617 56.0277 88.1128 58.7124C91.2804 59.8068 94.3791 61.9345 95.4634 65.2511C96.8817 69.6962 96.26 75.0094 93.0974 78.5779C90.5328 81.5145 86.7974 83.1128 83.0719 83.9809C78.1157 85.086 72.9723 85.1141 67.9391 84.6234C63.2064 84.0839 58.2813 82.8405 54.6276 79.6158C51.5034 76.903 49.9774 72.6762 50.1289 68.5966C50.1651 67.9077 50.851 67.4273 51.511 67.4839C53.4021 67.4685 55.2932 67.4634 57.1842 67.4864C57.9396 67.4324 58.4996 68.0851 58.5383 68.7971C58.8872 71.0809 59.7455 73.4779 61.737 74.8319C65.5804 77.3115 70.403 77.1417 74.8038 77.2111C78.4498 77.0494 82.5425 77.0005 85.5179 74.5907C87.0876 73.2162 87.5527 70.9166 87.1285 68.9383C86.6689 67.2681 84.9217 66.4898 83.4213 65.9809C75.7213 63.5451 67.3634 64.429 59.7379 61.6745C56.6421 60.5805 53.6485 58.512 52.4591 55.3315C50.7996 50.8303 51.56 45.2626 55.054 41.8145C58.4608 38.3847 63.3787 37.0643 68.0544 36.5915Z" fill="white"/>
</svg>
