<svg width="120" height="120" viewBox="0 0 120 120" fill="none" xmlns="http://www.w3.org/2000/svg">
<g clip-path="url(#clip0_6_224)">
<path fill-rule="evenodd" clip-rule="evenodd" d="M18 0H102C111.941 0 120 8.05888 120 18V102C120 111.941 111.941 120 102 120H18C8.05888 120 0 111.941 0 102V18C0 8.05888 8.05888 0 18 0ZM69.6094 66.5625H54.6094V109.453H42.6562V66.5625H27.6562V56.9531H69.6094V66.5625ZM81.0938 109.312C78.5156 108.82 76.1953 108.094 74.2969 107.109V95.8594C75.9609 97.2516 78.3047 98.5875 80.8828 99.4781C83.2266 100.369 85.8047 100.814 88.3828 100.814C90.0234 100.814 91.2656 100.673 92.3672 100.416C93.5156 100.134 94.4297 99.7594 95.1797 99.2906C95.9297 98.8219 96.4875 98.2594 96.8438 97.6031C97.2 96.9469 97.3828 96.2438 97.3828 95.4938C97.3828 94.4156 97.0781 93.4781 96.4922 92.6813C95.9531 91.8844 95.1562 91.1344 94.1484 90.4547C93.2109 89.775 92.0391 89.1188 90.6328 88.4859C90.4472 88.4024 90.2612 88.3185 90.0745 88.2342C88.8459 87.6799 87.5835 87.1103 86.1797 86.5406C82.1953 84.6656 79.0547 82.7906 77.0391 80.2125C75 77.8688 73.9922 74.8219 73.9922 71.3063C73.9922 68.4938 74.5312 66.2438 75.6328 64.275C76.8047 62.1656 78.1875 60.6188 80.0859 59.3531C81.9609 58.0641 84.0703 57.1266 86.6484 56.5406C89.2266 55.9547 91.8047 55.65 94.6172 55.65C97.4297 55.65 99.7734 55.8141 101.883 56.1422C103.992 56.4703 105.961 56.9859 107.742 57.6656V68.6813C106.922 68.0719 105.961 67.5328 104.93 67.0641C103.828 66.5953 102.75 66.2203 101.648 65.9156C100.547 65.6109 99.4453 65.3836 98.3672 65.2359C97.3359 65.0883 96.3047 65.0156 95.3203 65.0156C93.8906 65.0156 92.6719 65.1328 91.5703 65.3906C90.4453 65.6484 89.5078 66 88.7578 66.4688C88.0078 66.9375 87.4242 67.4766 87 68.1328C86.5758 68.7891 86.3672 69.5156 86.3672 70.3125C86.3672 71.1797 86.6016 71.9531 87.0703 72.6562C87.5391 73.3359 88.1953 73.9922 89.0625 74.625C89.8359 75.2344 90.8906 75.8438 92.1094 76.4531C92.6441 76.6848 93.1584 76.9165 93.6757 77.1495C94.5187 77.5293 95.3694 77.9125 96.3281 78.3047C98.4375 79.1953 100.312 80.1797 101.953 81.1172C103.594 82.0547 104.977 83.1562 106.172 84.3984C107.438 85.5703 108.352 86.9766 108.984 88.6172C109.617 90.2578 109.945 92.1094 109.945 94.2422C109.945 97.2891 109.219 99.6328 108.281 101.742C107.344 103.852 105.727 105.422 103.828 106.664C101.953 107.812 99.8438 108.703 97.2656 109.242C94.6875 109.781 92.1094 110.039 89.2969 110.039C86.4844 110.039 83.6719 109.805 81.0938 109.312Z" fill="white"/>
</g>
<defs>
<clipPath id="clip0_6_224">
<rect width="120" height="120" fill="white"/>
</clipPath>
</defs>
</svg>
